<?xml version="1.0" encoding="UTF-8"?>
<svg id="Capa_1" data-name="Capa 1" xmlns="http://www.w3.org/2000/svg" viewBox="0 0 578.76 438.91">
  <defs>
    <style>
      .cls-1 {
        fill: #bc9b73;
      }

      .cls-2 {
        fill: #fff;
      }

      .cls-3 {
        fill: none;
      }

      .cls-4 {
        fill: #71795c;
      }

      .cls-5 {
        fill: #c49a6e;
      }
    </style>
  </defs>
  <g>
    <g>
      <path class="cls-2" d="M27.12,212.61c-.26,3.66-1.55,6.84-1.55,6.84,0,0-8.33-2.88-12.14-2.88-.77,0-2.39,1.08-2.39,2.64,0,6.54,18.02,6.06,18.02,16.44,0,6.12-8.78,11.64-12.08,11.64-5.55,0-10.59-.96-13.63-2.16,0-3.36.97-7.2.97-7.2,0,0,9.23,3,15.11,3.12.45,0,2.07-1.14,2.07-3.12,0-7.08-18.66-6.9-18.66-16.62,0-5.88,8.52-10.44,12.33-10.44,5.1,0,8.98.78,11.95,1.74Z"/>
      <path class="cls-2" d="M42.81,246.33l-8.14.3.19-18.72-.32-16.38,8.33-.3-.58,18,.52,17.1Z"/>
      <path class="cls-2" d="M73.61,212.61c-.26,3.66-1.55,6.84-1.55,6.84,0,0-8.33-2.88-12.14-2.88-.77,0-2.39,1.08-2.39,2.64,0,6.54,18.02,6.06,18.02,16.44,0,6.12-8.78,11.64-12.08,11.64-5.55,0-10.59-.96-13.63-2.16,0-3.36.97-7.2.97-7.2,0,0,9.23,3,15.11,3.12.45,0,2.07-1.14,2.07-3.12,0-7.08-18.66-6.9-18.66-16.62,0-5.88,8.52-10.44,12.33-10.44,5.1,0,8.98.78,11.95,1.74Z"/>
      <path class="cls-2" d="M108.74,217.53l-11.43-.18-.32,11.82.39,17.1-8.39.3.39-17.4-.26-11.76-10.59.12.06-6.3,15.56.36,14.72-.3-.13,6.24Z"/>
      <path class="cls-2" d="M134.18,231.03l-12.85.06.26,9.48,15.11-.24-.26,6.3-15.76-.3-6.91.24.32-17.22-.52-17.88,6.33.12,16.53-.3-.13,5.94h-14.79l-.19,8.04,13.04-.12-.19,5.88Z"/>
      <path class="cls-2" d="M150.26,246.27l-7.75.3c.77-7.26,1.55-29.58,1.87-35.04l9.69-.48c1.94,5.46,7.88,17.4,11.62,24.54,4-8.1,9.1-18.12,11.24-23.76l9.62-.54.58,17.94,1.29,17.1-7.75.3-.52-16.02-.65-10.56c-4.13,9.48-10.27,20.82-12.85,26.76h-3.55c-2.97-7.38-8.91-18.66-12.66-27.18l-.26,14.16.06,12.48Z"/>
      <path class="cls-2" d="M221.16,246.63l-3.29-9.48h-14.08l-3.29,9.42-8.14-.18s8.52-18.12,15.82-35.22h6.39s8.01,19.86,15.05,35.22l-8.46.24ZM205.79,232.05h10.14l-5.04-12.06-5.1,12.06Z"/>
      <path class="cls-2" d="M251.7,228.03l-.19-16.62h11.82c8.59,0,22.99,1.98,22.99,16.38,0,11.4-8.07,19.2-20.47,19.2-6.33,0-8.33-.36-13.37-.42h-1.29l.52-18.54ZM259.77,240.81c1.81.24,4,.42,6.2.42,3.1,0,5.88-.42,8.01-.9,2.26-2.7,4.13-6.84,4.13-11.4,0-9.66-6.72-12.24-14.98-12.24-1.16,0-2.32.06-3.29.18l-.45,11.58.39,12.36Z"/>
      <path class="cls-2" d="M312.46,231.03l-12.85.06.26,9.48,15.11-.24-.26,6.3-15.76-.3-6.91.24.32-17.22-.52-17.88,6.33.12,16.53-.3-.13,5.94h-14.79l-.19,8.04,13.04-.12-.19,5.88Z"/>
      <path class="cls-2" d="M368.32,220.77c-1.48-.84-8.52-4.08-13.69-4.08-2.84,0-5.55.78-6.59,1.26-.97.84-3.68,4.14-3.68,9.24,0,7.32,4.71,14.22,14.85,14.22,2.32,0,5.29-1.02,5.29-1.02l.06-12.36,7.56-.42-.45,16.38c-3.04,1.32-9.49,3.42-15.63,3.42-10.33,0-19.5-6.78-19.5-17.46,0-12.96,10.01-19.44,20.21-19.44,6.65,0,12.98,2.76,15.11,3.9-1.16,3.42-3.55,6.36-3.55,6.36Z"/>
      <path class="cls-2" d="M399.7,231.03l-12.85.06.26,9.48,15.11-.24-.26,6.3-15.76-.3-6.91.24.32-17.22-.52-17.88,6.33.12,16.53-.3-.13,5.94h-14.79l-.19,8.04,13.04-.12-.19,5.88Z"/>
      <path class="cls-2" d="M431.66,212.61c-.26,3.66-1.55,6.84-1.55,6.84,0,0-8.33-2.88-12.14-2.88-.78,0-2.39,1.08-2.39,2.64,0,6.54,18.02,6.06,18.02,16.44,0,6.12-8.78,11.64-12.08,11.64-5.55,0-10.59-.96-13.63-2.16,0-3.36.97-7.2.97-7.2,0,0,9.23,3,15.11,3.12.45,0,2.07-1.14,2.07-3.12,0-7.08-18.66-6.9-18.66-16.62,0-5.88,8.52-10.44,12.33-10.44,5.1,0,8.98.78,11.95,1.74Z"/>
      <path class="cls-2" d="M466.79,217.53l-11.43-.18-.32,11.82.39,17.1-8.39.3.39-17.4-.26-11.76-10.59.12.06-6.3,15.56.36,14.72-.3-.13,6.24Z"/>
      <path class="cls-2" d="M479.9,246.33l-8.14.3.19-18.72-.32-16.38,8.33-.3-.58,18,.52,17.1Z"/>
      <path class="cls-2" d="M523.36,227.79c0,11.52-8.27,19.62-19.44,19.62-8.14,0-18.73-5.82-18.73-18.3,0-10.8,9.11-18.6,19.57-18.6,9.36,0,18.6,6.54,18.6,17.28ZM511.67,240.33c1.42-1.68,2.78-4.8,3.16-8.1.06-1.14.13-2.28,0-3.48-.58-7.62-5.55-12.54-12.79-12.54-1.62,0-4.39.66-5.17,1.14-1.23,1.32-3.75,4.68-3.75,9.72,0,8.7,5.68,14.52,12.98,14.52,1.74,0,4.33-.48,5.55-1.26ZM511.67,204.15c-5.23,3.12-11.43,4.68-11.43,4.68,0,0-1.36-1.5-2.26-3.3,0,0,5.36-3.06,9.56-6.6,1.87,1.86,3.55,4.44,4.13,5.22Z"/>
      <path class="cls-2" d="M537.17,246.27l-8.27.3.32-18.84-.13-16.08,9.56-.54c2,4.92,12.66,16.44,19.57,24.54l-.13-10.2-.65-13.86,8.4-.36-.32,17.04v18.12l-7.49.54c-3.68-6.6-16.21-19.26-21.57-26.88l.13,9.78.58,16.44Z"/>
      <path class="cls-2" d="M153.42,300.03l-.19-16.62h11.82c8.59,0,22.99,1.98,22.99,16.38,0,11.4-8.07,19.2-20.47,19.2-6.33,0-8.33-.36-13.37-.42h-1.29l.52-18.54ZM161.49,312.81c1.81.24,4,.42,6.2.42,3.1,0,5.88-.42,8.01-.9,2.26-2.7,4.13-6.84,4.13-11.4,0-9.66-6.72-12.24-14.98-12.24-1.16,0-2.32.06-3.29.18l-.45,11.58.39,12.36Z"/>
      <path class="cls-2" d="M214.19,303.03l-12.85.06.26,9.48,15.11-.24-.26,6.3-15.76-.3-6.91.24.32-17.22-.52-17.88,6.33.12,16.53-.3-.13,5.94h-14.79l-.19,8.04,13.04-.12-.19,5.88Z"/>
      <path class="cls-2" d="M253.64,283.41c1.55,0,3.1.06,4.58.18,5.1.42,8.65,3.36,8.65,7.2s-2.52,6.84-5.49,8.46c5.04,1.08,8.52,4.14,8.52,8.76,0,6.78-6.33,10.68-13.56,10.68-6.46,0-12.27-.18-16.01-.3l.26-17.94-.32-16.92,13.37-.12ZM248.08,297.63l7.56.18c1.42-.54,3.88-2.4,3.88-5.16s-2.52-4.14-6.07-4.14h-5.29c0,3-.06,6.06-.06,9.12ZM248.34,312.99c1.68.36,4.71.48,7.1.48,2.97,0,6.65-1.68,6.65-5.28,0-3.06-2.58-5.4-8.14-5.4l-5.81.18.19,10.02Z"/>
      <path class="cls-2" d="M283.28,318.33l-8.14.3.19-18.72-.32-16.38,8.33-.3-.58,18,.52,17.1Z"/>
      <path class="cls-2" d="M311.17,303.03l-12.85.06.26,9.48,15.11-.24-.26,6.3-15.76-.3-6.91.24.32-17.22-.52-17.88,6.33.12,16.53-.3-.13,5.94h-14.79l-.19,8.04,13.04-.12-.19,5.88Z"/>
      <path class="cls-2" d="M327.9,318.27l-8.27.3.32-18.84-.13-16.08,9.56-.54c2,4.92,12.66,16.44,19.57,24.54l-.13-10.2-.65-13.86,8.39-.36-.32,17.04v18.12l-7.49.54c-3.68-6.6-16.21-19.26-21.57-26.88l.13,9.78.58,16.44Z"/>
      <path class="cls-2" d="M384.4,303.03l-12.85.06.26,9.48,15.11-.24-.26,6.3-15.76-.3-6.91.24.32-17.22-.52-17.88,6.33.12,16.53-.3-.13,5.94h-14.79l-.19,8.04,13.04-.12-.19,5.88Z"/>
      <path class="cls-2" d="M416.36,284.61c-.26,3.66-1.55,6.84-1.55,6.84,0,0-8.33-2.88-12.14-2.88-.78,0-2.39,1.08-2.39,2.64,0,6.54,18.02,6.06,18.02,16.44,0,6.12-8.78,11.64-12.08,11.64-5.55,0-10.59-.96-13.63-2.16,0-3.36.97-7.2.97-7.2,0,0,9.23,3,15.11,3.12.45,0,2.07-1.14,2.07-3.12,0-7.08-18.66-6.9-18.66-16.62,0-5.88,8.52-10.44,12.33-10.44,5.1,0,8.98.78,11.95,1.74Z"/>
      <path class="cls-2" d="M144.09,390.33l-8.14.3.19-18.72-.32-16.38,8.33-.3-.58,18,.52,17.1Z"/>
      <path class="cls-2" d="M159.65,390.27l-8.27.3.32-18.84-.13-16.08,9.56-.54c2,4.92,12.66,16.44,19.57,24.54l-.13-10.2-.65-13.86,8.4-.36-.32,17.04v18.12l-7.49.54c-3.68-6.6-16.21-19.26-21.57-26.88l.13,9.78.58,16.44Z"/>
      <path class="cls-2" d="M203.18,390.27l-7.75.3c.77-7.26,1.55-29.58,1.87-35.04l9.69-.48c1.94,5.46,7.88,17.4,11.62,24.54,4-8.1,9.1-18.12,11.24-23.76l9.62-.54.58,17.94,1.29,17.1-7.75.3-.52-16.02-.65-10.56c-4.13,9.48-10.27,20.82-12.85,26.76h-3.55c-2.97-7.38-8.91-18.66-12.66-27.18l-.26,14.16.06,12.48Z"/>
      <path class="cls-2" d="M248.25,355.47l8.27-.24c-.06,2.7-.26,9.3-.26,18.24s2.71,11.64,9.11,11.64c3.03,0,6.01-.84,7.23-1.62,1.87-3.84,2.07-14.94,2.07-20.64v-7.38l7.94-.24c-.06,2.58-.19,9.54-.19,14.34,0,14.52-5.1,21.42-18.53,21.42-11.69,0-15.76-5.46-15.76-17.16l.13-18.36Z"/>
      <path class="cls-2" d="M310.11,375.03l-12.85.06.26,9.48,15.11-.24-.26,6.3-15.76-.3-6.91.24.32-17.22-.52-17.88,6.33.12,16.53-.3-.13,5.94h-14.79l-.19,8.04,13.04-.12-.19,5.88Z"/>
      <path class="cls-2" d="M331.93,355.41c1.55,0,3.1.06,4.58.18,5.1.42,8.65,3.36,8.65,7.2s-2.52,6.84-5.49,8.46c5.04,1.08,8.52,4.14,8.52,8.76,0,6.78-6.33,10.68-13.56,10.68-6.46,0-12.27-.18-16.01-.3l.26-17.94-.32-16.92,13.37-.12ZM326.38,369.63l7.56.18c1.42-.54,3.87-2.4,3.87-5.16s-2.52-4.14-6.07-4.14h-5.29c0,3-.06,6.06-.06,9.12ZM326.64,384.99c1.68.36,4.71.48,7.1.48,2.97,0,6.65-1.68,6.65-5.28,0-3.06-2.58-5.4-8.14-5.4l-5.81.18.19,10.02Z"/>
      <path class="cls-2" d="M375.97,390.63l-13.43-.42-9.1.3.19-18.6-.32-16.44,8.33-.24-.45,18,.26,11.34,14.66-.12-.13,6.18Z"/>
      <path class="cls-2" d="M401.48,375.03l-12.85.06.26,9.48,15.11-.24-.26,6.3-15.76-.3-6.91.24.32-17.22-.52-17.88,6.33.12,16.53-.3-.13,5.94h-14.79l-.19,8.04,13.04-.12-.19,5.88Z"/>
      <path class="cls-2" d="M433.44,356.61c-.26,3.66-1.55,6.84-1.55,6.84,0,0-8.33-2.88-12.14-2.88-.77,0-2.39,1.08-2.39,2.64,0,6.54,18.02,6.06,18.02,16.44,0,6.12-8.78,11.64-12.08,11.64-5.55,0-10.59-.96-13.62-2.16,0-3.36.97-7.2.97-7.2,0,0,9.23,3,15.11,3.12.45,0,2.07-1.14,2.07-3.12,0-7.08-18.66-6.9-18.66-16.62,0-5.88,8.52-10.44,12.33-10.44,5.1,0,8.98.78,11.95,1.74Z"/>
    </g>
    <g>
      <path class="cls-1" d="M100.26,413.42c-.11,1.53-.65,2.86-.65,2.86,0,0-3.48-1.2-5.07-1.2-.32,0-1,.45-1,1.1,0,2.73,7.53,2.53,7.53,6.87,0,2.56-3.67,4.86-5.05,4.86-2.32,0-4.43-.4-5.7-.9,0-1.4.4-3.01.4-3.01,0,0,3.86,1.25,6.32,1.3.19,0,.86-.48.86-1.3,0-2.96-7.8-2.88-7.8-6.94,0-2.46,3.56-4.36,5.16-4.36,2.13,0,3.75.33,4.99.73Z"/>
      <path class="cls-1" d="M112.11,421.12l-5.37.02.11,3.96,6.32-.1-.11,2.63-6.59-.12-2.89.1.13-7.2-.22-7.47,2.65.05,6.91-.12-.05,2.48h-6.18l-.08,3.36,5.45-.05-.08,2.46Z"/>
      <path class="cls-1" d="M128.52,423.88c.24,1.53.05,2.76.05,2.76-1.27.58-4.27,1.33-5.97,1.33-4.51,0-7.83-3.13-7.83-7.25,0-5.49,4.35-8.17,8.18-8.17,2.4,0,4.67.98,6.1,1.75-.46,1.48-1.35,2.51-1.35,2.51-.14,0-2.92-1.6-5.4-1.6-1.19,0-2.1.28-2.7.53-.7.7-1.48,2.13-1.48,3.79s.57,3.13,1.59,4.16c1,.98,2.29,1.58,4.13,1.58,1.16,0,4.56-1.38,4.67-1.38Z"/>
      <path class="cls-1" d="M140.53,421.62c1.62,2.51,3.75,5.11,3.75,5.11l-3.13,1.08s-1.73-1.96-4.02-5.67l-2.24-.25.11,5.59-3.43.15.11-7.77-.13-6.92,5.88-.05c4.05,0,5.83,1.81,5.83,4.06,0,2.11-1.43,3.74-2.73,4.66ZM134.86,419.44c.81.17,2.65.4,3.59.4.49-.3,1.4-1.1,1.4-2.66,0-1.43-1.05-2.16-2.94-2.16l-1.94.03-.11,4.39Z"/>
      <path class="cls-1" d="M154.86,421.12l-5.37.02.11,3.96,6.32-.1-.11,2.63-6.59-.12-2.89.1.13-7.2-.22-7.47,2.65.05,6.91-.12-.05,2.48h-6.18l-.08,3.36,5.45-.05-.08,2.46Z"/>
      <path class="cls-1" d="M170.13,415.48l-4.78-.08-.14,4.94.16,7.14-3.51.13.16-7.27-.11-4.91-4.43.05.03-2.63,6.51.15,6.15-.12-.05,2.61Z"/>
      <path class="cls-1" d="M181.09,427.64l-1.38-3.96h-5.88l-1.38,3.94-3.4-.08s3.56-7.57,6.61-14.72h2.67s3.35,8.3,6.29,14.72l-3.54.1ZM174.67,421.55h4.24l-2.11-5.04-2.13,5.04Z"/>
      <path class="cls-1" d="M195.42,421.62c1.62,2.51,3.75,5.11,3.75,5.11l-3.13,1.08s-1.73-1.96-4.02-5.67l-2.24-.25.11,5.59-3.43.15.11-7.77-.13-6.92,5.88-.05c4.05,0,5.83,1.81,5.83,4.06,0,2.11-1.43,3.74-2.73,4.66ZM189.75,419.44c.81.17,2.65.4,3.59.4.49-.3,1.4-1.1,1.4-2.66,0-1.43-1.05-2.16-2.94-2.16l-1.94.03-.11,4.39Z"/>
      <path class="cls-1" d="M206.43,409.89c-2.19,1.3-4.75,1.96-4.75,1.96,0,0-.57-.63-.94-1.38,0,0,2.24-1.28,4-2.76.78.78,1.48,1.86,1.7,2.18ZM204.65,427.51l-3.4.12.08-7.82-.13-6.84,3.48-.12-.24,7.52.22,7.15Z"/>
      <path class="cls-1" d="M218.5,427.64l-1.38-3.96h-5.88l-1.38,3.94-3.4-.08s3.56-7.57,6.61-14.72h2.67s3.35,8.3,6.29,14.72l-3.54.1ZM212.07,421.55h4.24l-2.11-5.04-2.13,5.04Z"/>
      <path class="cls-1" d="M231.8,419.87l-.08-6.94h4.94c3.59,0,9.61.83,9.61,6.84,0,4.76-3.37,8.02-8.56,8.02-2.65,0-3.48-.15-5.59-.17h-.54l.22-7.75ZM235.17,425.21c.76.1,1.67.18,2.59.18,1.3,0,2.46-.18,3.35-.38.94-1.13,1.73-2.86,1.73-4.76,0-4.04-2.81-5.11-6.26-5.11-.49,0-.97.03-1.38.08l-.19,4.84.16,5.16Z"/>
      <path class="cls-1" d="M257.33,421.12l-5.37.02.11,3.96,6.32-.1-.11,2.63-6.59-.12-2.89.1.13-7.2-.22-7.47,2.65.05,6.91-.12-.05,2.48h-6.18l-.08,3.36,5.45-.05-.08,2.46Z"/>
      <path class="cls-1" d="M279.49,427.64l-1.38-3.96h-5.88l-1.38,3.94-3.4-.08s3.56-7.57,6.61-14.72h2.67s3.35,8.3,6.29,14.72l-3.54.1ZM273.06,421.55h4.24l-2.11-5.04-2.13,5.04Z"/>
      <path class="cls-1" d="M285.02,419.87l-.08-6.94h4.94c3.59,0,9.61.83,9.61,6.84,0,4.76-3.37,8.02-8.56,8.02-2.64,0-3.48-.15-5.59-.17h-.54l.22-7.75ZM288.39,425.21c.76.1,1.67.18,2.59.18,1.29,0,2.46-.18,3.35-.38.94-1.13,1.73-2.86,1.73-4.76,0-4.04-2.81-5.11-6.26-5.11-.49,0-.97.03-1.38.08l-.19,4.84.16,5.16Z"/>
      <path class="cls-1" d="M305.12,427.49l-3.24.13c.32-3.03.65-12.36.78-14.64l4.05-.2c.81,2.28,3.29,7.27,4.86,10.25,1.67-3.38,3.81-7.57,4.7-9.93l4.02-.23.24,7.5.54,7.15-3.24.12-.22-6.69-.27-4.41c-1.73,3.96-4.29,8.7-5.37,11.18h-1.48c-1.24-3.08-3.72-7.8-5.29-11.36l-.11,5.92.03,5.21Z"/>
      <path class="cls-1" d="M327.63,427.51l-3.4.12.08-7.82-.13-6.84,3.48-.12-.24,7.52.22,7.15Z"/>
      <path class="cls-1" d="M334.27,427.49l-3.46.13.13-7.87-.05-6.72,4-.23c.84,2.06,5.29,6.87,8.18,10.25l-.05-4.26-.27-5.79,3.51-.15-.13,7.12v7.57l-3.13.23c-1.54-2.76-6.78-8.05-9.02-11.23l.05,4.09.24,6.87Z"/>
      <path class="cls-1" d="M352.86,427.51l-3.4.12.08-7.82-.13-6.84,3.48-.12-.24,7.52.22,7.15Z"/>
      <path class="cls-1" d="M365.87,413.42c-.11,1.53-.65,2.86-.65,2.86,0,0-3.48-1.2-5.08-1.2-.32,0-1,.45-1,1.1,0,2.73,7.53,2.53,7.53,6.87,0,2.56-3.67,4.86-5.05,4.86-2.32,0-4.43-.4-5.7-.9,0-1.4.41-3.01.41-3.01,0,0,3.86,1.25,6.32,1.3.19,0,.86-.48.86-1.3,0-2.96-7.8-2.88-7.8-6.94,0-2.46,3.56-4.36,5.16-4.36,2.13,0,3.75.33,4.99.73Z"/>
      <path class="cls-1" d="M380.69,415.48l-4.78-.08-.13,4.94.16,7.14-3.51.13.16-7.27-.11-4.91-4.43.05.03-2.63,6.5.15,6.15-.12-.05,2.61Z"/>
      <path class="cls-1" d="M391.86,421.62c1.62,2.51,3.75,5.11,3.75,5.11l-3.13,1.08s-1.73-1.96-4.02-5.67l-2.24-.25.11,5.59-3.43.15.11-7.77-.13-6.92,5.88-.05c4.05,0,5.83,1.81,5.83,4.06,0,2.11-1.43,3.74-2.73,4.66ZM386.19,419.44c.81.17,2.65.4,3.59.4.49-.3,1.4-1.1,1.4-2.66,0-1.43-1.05-2.16-2.94-2.16l-1.94.03-.11,4.39Z"/>
      <path class="cls-1" d="M408.41,427.64l-1.38-3.96h-5.88l-1.38,3.94-3.4-.08s3.56-7.57,6.61-14.72h2.67s3.35,8.3,6.29,14.72l-3.54.1ZM401.98,421.55h4.24l-2.11-5.04-2.13,5.04Z"/>
      <path class="cls-1" d="M426.62,423.88c.24,1.53.05,2.76.05,2.76-1.27.58-4.26,1.33-5.96,1.33-4.51,0-7.83-3.13-7.83-7.25,0-5.49,4.35-8.17,8.18-8.17,2.4,0,4.67.98,6.1,1.75-.46,1.48-1.35,2.51-1.35,2.51-.13,0-2.92-1.6-5.4-1.6-1.19,0-2.11.28-2.7.53-.7.7-1.49,2.13-1.49,3.79s.57,3.13,1.59,4.16c1,.98,2.29,1.58,4.13,1.58,1.16,0,4.56-1.38,4.67-1.38Z"/>
      <path class="cls-1" d="M433.21,427.51l-3.4.12.08-7.82-.13-6.84,3.48-.12-.24,7.52.22,7.15Z"/>
      <path class="cls-1" d="M451.51,419.77c0,4.81-3.46,8.2-8.12,8.2-3.4,0-7.83-2.43-7.83-7.65,0-4.51,3.81-7.77,8.18-7.77,3.91,0,7.77,2.73,7.77,7.22ZM446.62,425.01c.59-.7,1.16-2.01,1.32-3.38.03-.48.05-.95,0-1.45-.24-3.18-2.32-5.24-5.34-5.24-.67,0-1.83.28-2.16.48-.51.55-1.57,1.96-1.57,4.06,0,3.64,2.38,6.07,5.43,6.07.73,0,1.81-.2,2.32-.53ZM446.62,409.89c-2.19,1.3-4.78,1.96-4.78,1.96,0,0-.57-.63-.94-1.38,0,0,2.24-1.28,4-2.76.78.78,1.48,1.86,1.73,2.18Z"/>
      <path class="cls-1" d="M457.41,427.49l-3.46.13.13-7.87-.05-6.72,4-.23c.84,2.06,5.29,6.87,8.18,10.25l-.05-4.26-.27-5.79,3.51-.15-.13,7.12v7.57l-3.13.23c-1.54-2.76-6.78-8.05-9.02-11.23l.05,4.09.24,6.87Z"/>
    </g>
    <path class="cls-4" d="M294.63,120.74c-1.31,1.1-1.79,2.74-2.96,4.04-1.16-1.16-1.14-2.69-2.2-3.68,1.54-2.94,3.8-5.39,6.26-7.7,3.71-3.48,7.43-6.95,11.24-10.35,5.33-4.76,8.34-10.47,8.78-17.3.06-.87.2-1.73.31-2.6.13-1.01.7-1.8,1.56-2.39.6-.41,1.3-.92,2.06-.57.7.32.41,1.08.41,1.64.02,5.48.12,10.97-.03,16.44-.19,7.33-2.79,13.96-7.37,19.95-.43.57-.84,1.15-1.25,1.72-.86.65-1.66,1.36-2.16,2.3-2.11,1.55-4.02,3.28-5.71,5.22-.75.35-1.32.87-1.68,1.57-.94.52-1.72,1.2-2.26,2.09-2.02,1.22-3.3,3.22-5.53,4.5-.12-.6-.14-1.03-.29-1.41-.8-2.04-.27-3.66,1.67-4.94.51-.33.84-.9,1.24-1.37.84-.36,1.42-.96,1.88-1.69.55-.19.93-.54,1.16-1.03,3.26-2.66,6.43-5.4,9.08-8.59,4.4-5.31,6.7-11.35,7.13-18.08-.31.12-.57.14-.64.26-3.37,5.68-8.7,9.81-13.5,14.35-1.77,1.68-3.8,3.14-5.17,5.15-.88.66-1.58,1.43-2,2.41l-.04.04Z"/>
    <path class="cls-4" d="M245.59,79.18c0-1.12-.98-2.02-2.19-2.03-4.66-.03-9.33-.06-13.99-.08-5.4.03-10.79.2-16.19.06-4.48-.12-8.37-3.04-9.75-6.89-1.43-3.97-.19-8.09,3.29-10.88,2.32-1.86,5.05-2.65,8.1-2.64,7.47,0,14.93.04,22.4-.03,5.32-.05,9.6-4.02,9.67-8.91.04-2.87.02-5.74.03-8.6,0-6.7-.09-4,.05-10.69.1-4.93,3.66-9.04,8.7-10.48,4.96-1.41,10.21.11,13.47,3.94,2.59,3.04,3.01,6.47,2.11,10.13-.08.34-.28.65-.38.98-.55,1.66-.24,2.66.96,3.1,1.22.45,2.39-.12,3.01-1.66,2.12-5.29,1.46-10.31-2.23-14.82-3.62-4.44-8.64-6.52-14.62-6-8.86.78-14.99,7-15.28,15.18-.09,2.52-.03,5.04-.02,7.57,0,6.52.04,3.65.01,10.17-.02,4.59-2.46,6.57-7,6.38-.85-.04-1.7-.01-2.56-.01-6.44,0-12.88-.01-19.32.03-6.85.04-12.7,4.14-14.53,10.11-1.86,6.06.7,12.24,6.46,15.69,2.79,1.67,5.87,2.35,9.16,2.38,6.72.04,13.44.08,20.17.12,2.77-.02,5.54-.04,8.3-.06,1.21,0,2.19-.91,2.19-2.03"/>
    <path class="cls-4" d="M336.7,81.16c6.25,0,12.51,0,18.76,0,3.8,0,7.3-.86,10.39-2.96,7.47-5.08,8.16-14.93,1.99-20.86-3.03-2.91-6.7-4.42-11.14-4.39-7.39.04-14.78.03-22.17,0-4.59-.01-6.53-1.81-6.64-6.05-.02-.78,0-1.57,0-2.35,0-8.44.06-7.48,0-15.92-.06-8.73-8.47-15.67-17.71-15.01-9.01.63-16.87,8.01-15.26,17.87.19,1.2.53,2.39,1.17,3.47.71,1.2,1.72,1.61,2.77,1.17,1.14-.47,1.4-1.36,1.14-2.39-.22-.85-.55-1.66-.75-2.51-1.64-6.87,3.99-13.5,11.63-13.72,7.03-.2,12.81,4.77,12.88,11.31.11,9.22.04,9.05.04,18.27,0,1.04-.04,2.09.24,3.11,1.08,3.85,4.69,6.48,9.17,6.51,7.49.05,14.97.02,22.46,0,3.58-.01,6.72.97,9.17,3.45,3.1,3.15,3.76,6.81,2.07,10.68-1.7,3.88-5,6.13-9.59,6.3-4.73.17-9.47.05-14.21.06-4.81,0-9.62,0-14.43,0-1.2,0-2.18.9-2.17,2.01,0,1.09.98,1.98,2.17,1.98h8.04v-.02Z"/>
    <path class="cls-5" d="M253.87,68.78c-12.42-.03-24.83.01-37.24.02-.85,0-1.71.01-2.56-.05-1.23-.09-1.93-.77-1.94-1.87,0-1.12.77-1.74,1.96-1.87.75-.07,1.51-.06,2.27-.06,6.82,0,13.65.02,20.47.02,11.19.01,19.22-7.26,19.27-17.52.04-8.61,0-7.83.02-16.45,0-.87-.04-1.75.12-2.6.29-1.52,1.6-2.49,3.17-2.48,1.47,0,2.6.86,3.03,2.3.07.25.03.52.09.78.38,1.48,1.21,2.18,2.42,2.04,1.31-.15,2.02-1.2,1.88-2.77-.43-4.82-6.39-7.77-11.02-5.44-2.89,1.46-3.91,3.8-3.9,6.74.05,8.7,0,8.01.02,16.71,0,1.4-.03,2.8-.36,4.15-1.33,5.43-4.99,8.88-10.82,10.28-1.62.39-3.39.33-5.09.35-7.11.05-14.22-.01-21.32.09-3.97.06-6.57,2.52-6.49,5.87.07,3.23,2.65,5.47,6.49,5.63,1.04.04,2.09-.02,3.13.01,2.27.06,4.55-.15,6.81.16,6.62-.36,13.24-.07,19.86-.14,3.6-.04,7.2-.08,10.79.1,2.32.12,4.42.8,6.19,1.87h6.08c-3.1-3.54-7.92-5.85-13.34-5.86"/>
    <path class="cls-5" d="M316.64,72.7c6.44-.02,12.89,0,19.33,0h0c6.35-.01,12.7-.01,19.05-.02,1.04,0,2.08.03,3.11-.22,3.52-.85,5.51-4.12,4.42-7.3-.92-2.69-3.16-4.06-6.82-4.07-7.11-.02-14.21,0-21.32,0-1.71,0-3.41-.04-5.07-.48-6.5-1.75-10.57-6.81-10.59-13.3-.02-9.22.04-9.05-.01-18.28-.02-4.72-4.21-7.76-9.15-6.79-3.2.62-5.7,3.42-5.7,6.36,0,1.44.72,2.41,1.94,2.44,1.35.04,2.09-.64,2.22-1.88.04-.34.11-.69.23-1.02.51-1.43,1.65-2.22,3.14-2.2,1.45.02,2.68.88,3.05,2.3.19.75.17,1.55.17,2.33,0,8.88,0,8.36,0,17.24,0,1.22.05,2.43.35,3.63,1.95,7.99,9.21,13.44,18.15,13.52,7.11.06,14.21.01,21.33.02.76,0,1.53-.04,2.27.07,1.17.17,1.89.84,1.81,1.97-.07.99-.75,1.6-1.82,1.7-.94.09-1.89.07-2.84.07-12.13,0-24.26.02-36.4,0-2.11,0-4.15.29-6.14.89-3.31.98-6.08,2.88-8.07,5.29l5.8.03c2.09-1.49,4.61-2.26,7.58-2.27"/>
    <path class="cls-4" d="M362.85,28.67c-3.92,1.02-6.04,4.7-4.69,8.23.63,1.66,1.84,2.83,3.77,3.21.91.18,1.74-.04,2.19-.84.41-.74.39-1.53-.18-2.21-.22-.27-.59-.43-.87-.66-1.69-1.45-1.23-3.26.99-3.92,2.44-.73,5.19.93,5.68,3.42.85,4.3-2.99,7.79-7.67,6.99-3.24-.55-5.16-2.46-6.13-5.2-1.77-4.99-7.24-8.19-13.24-8.11-3.42,0-6.52.89-9.25,2.81-.93.65-1.67,1.4-1.75,2.56-.07,1.09.07,2.22,1.17,2.75,1.27.61,1.48-.77,2.04-1.31,4.78-4.69,15.1-3.66,17.12,2.86.5,1.6,1.45,3.03,2.71,4.24,3.15,3.04,7.03,3.94,11.41,3.07,4.26-.85,6.6-3.47,7.56-7.24.3-1.19.31-2.42.2-3.63-.48-4.98-5.82-8.36-11.05-7"/>
    <path class="cls-4" d="M198.39,31.4c-2.24,3.48-2.25,7.13-.26,10.67,1.87,3.31,5.08,4.76,10.57,4.8,2.04.04,5.01-1.11,7.37-3.48,1.29-1.3,2.13-2.85,2.77-4.51,1.2-3.1,3.75-4.71,7.16-5.22,4.12-.61,7.66.39,10.4,3.42.96,1.06,1.52.96,2.23-.25.82-1.39.56-2.77-.81-4-1.31-1.18-2.95-1.86-4.63-2.46-5.9-2.1-15.58-.41-18.46,7.39-.33.89-.82,1.77-1.42,2.53-1.9,2.38-5.37,3.31-8.36,2.34-2.67-.87-4.19-3.25-3.98-6.25.14-1.93,1.24-3.26,3.21-3.86,1.61-.49,3.34-.1,4.09.94.76,1.05.54,1.77-1.07,3.23-.83.75-1.22,1.55-.6,2.55.55.9,1.73,1.19,3,.65,1.97-.83,2.99-2.34,3.26-4.28.44-3.09-1.28-5.66-4.48-6.76-3.3-1.13-8.41.09-9.99,2.54"/>
    <path class="cls-5" d="M282.98,42.81c-1.02-1.19-1.92-2.36-2.95-3.41-1.77-1.8-3.39-2.03-6.17-.86.89.8,1.59,1.41,2.28,2.04,3.58,3.27,5.92,7.18,6.88,11.73.49,2.29.53,4.63.51,6.96,0,1.05.36,1.48,1.56,1.46,1.89-.03,2-.06,2.03-1.91.01-.68.02-1.35.02-2.03.09-6.58,2.73-12.13,7.91-16.68.35-.31.74-.59,1.09-.91.61-.56.31-.98-.34-1.17-1.88-.53-3.59-.21-4.94,1.14-.88.88-1.61,1.89-2.45,2.82-.32.35-.39,1.07-1.3.8v-2.91c0-2.86.01-5.71,0-8.57,0-.51.2-1.22-.44-1.41-.84-.25-1.81-.29-2.65.02-.76.28-.47,1.05-.47,1.61-.03,3.08,0,6.16-.02,9.24,0,.68.28,1.46-.56,2.04"/>
    <path class="cls-4" d="M280.06,59.1c.21-3.38-1.44-5.88-4.7-7.41-1.05-.49-1.48-.96-.95-1.99.2-.39.34-.81.43-1.24.92-4.54-3-8.54-7.83-7.96-1.89.23-3.4,1.06-4.38,2.58-.52.8-.52,1.69.2,2.42.53.53,1.25.85,2.05.52.5-.21.99-.53,1.37-.9.94-.89,1.94-.98,3.06-.34,1.18.67,1.65,1.89,1.26,3.17-.51,1.66-1.93,2.75-3.93,2.9-1.22.09-2.46.02-3.69.03-2.25.01-2.27.01-2.82,1.98-1.1,3.87-3.08,7.27-6.26,10.05-.45.4-1.09.71-1.2,1.57,1.11.07,2.23,0,3.28.25,1.58.36,2.45-.3,3.3-1.36,1.82-2.26,3.32-4.66,4.25-7.33.35-1.01.95-1.37,2.06-1.34,1.8.05,3.61-.07,5.4.04,2.34.13,4.25,1.46,4.79,3.14.53,1.67-.99,3.54-2.77,3.42-.95-.06-1.45-.74-2.09-1.24-.91-.69-1.88-.8-2.8,0-.9.79-.82,1.7-.23,2.61.45.68,1.08,1.21,1.81,1.64,4.19,2.48,10.13-.45,10.42-5.21"/>
    <path class="cls-4" d="M304.71,45.41c1.02.74,1.99,1.02,3.05.19.95-.73.94-1.9-.03-3.03-1.05-1.21-2.44-1.89-4.12-2.07-4.76-.5-8.68,3.26-7.63,7.75.5,2.11.21,3.07-1.88,4.2-2.85,1.52-3.82,4.22-3.36,7.23.4,2.56,2.09,4.23,4.67,5.12,2.82.98,6.18-.05,7.48-2.22.67-1.12.51-2.17-.49-2.76-1.19-.71-2.07-.18-3.01.58-1.4,1.14-2.33,1.14-3.48.25-1.17-.91-1.42-2.23-.62-3.53.98-1.58,2.59-2.28,4.47-2.39,1.79-.1,3.6.01,5.4-.06,1.15-.05,1.72.39,2.04,1.36.71,2.09,1.89,3.96,3.11,5.84,1.36,2.1,2.94,3.57,5.88,2.73.52-.15,1.12-.08,1.68-.11.1-.15.2-.3.3-.45-4.2-3.2-6.69-7.31-7.86-12.09-.22-.88-.75-1.08-1.6-1.07-1.52.02-3.04.05-4.55-.02-1.99-.1-3.45-1.18-4.04-2.79-.4-1.1-.13-2.07.7-2.9,1.08-1.08,2.12-1.04,3.87.23"/>
    <path class="cls-5" d="M340.53,13.16c-.76-.51-1.65-.06-2.42.27-.98.41-1.7,1.09-2.06,2.05-.3.82-.51,1.68-.87,2.47-.74,1.62-.46,3.65-2.36,4.82-.47.29-.1.8.04,1.19.27.73.58,1.45.92,2.29,7.56-1.66,14.79-2.04,21.52,1.95.93.55,1.45.1,1.88-.46.53-.69,2.09-1.21,1.05-2.27-.86-.87-.47-1.58-.23-2.36.48-1.59,1.08-3.14,1.51-4.74.17-.63.88-1.33.25-1.94-.7-.68-1.59-.06-2.4,0-.9.06-1.26.62-1.69,1.18-.73.95-.95,2.06-1.31,3.14-.7,2.11-.71,2.11-3.07,1.47-.18-.05-.36-.11-.54-.14-1.32-.19-1.7-.81-1.27-2,.63-1.73,1.18-3.48,1.69-5.24.35-1.22-.05-1.61-1.37-1.41-2.14.33-3.17,1.67-3.76,3.47-.45,1.39-.35,3.25-1.65,4.02-1.36.8-3.32.21-5,.32-.17.01-.35-.11-.59-.18.24-1.99,1.23-3.8,1.7-5.74.17-.72.91-1.54.01-2.14"/>
    <path class="cls-5" d="M217.23,22.66c-.93-1.14-.97-2.6-1.54-3.87-.67-1.5-1.79-2.43-3.56-2.62-1.14-.12-1.53.28-1.21,1.36.54,1.84,1.18,3.66,1.75,5.5.26.81.55,1.54-.21,2.41-1.11,1.28.72,1.68,1.21,2.46.45.72,1.1.66,1.91.18,5.88-3.46,12.29-3.61,18.87-2.32,2.53.5,2.89.34,3.46-1.94.14-.54.22-1.04-.4-1.36-.96-.49-1.01-1.41-1.28-2.22-.47-1.41-.89-2.83-1.37-4.24-.38-1.11-1.01-2.07-2.22-2.58-.86-.36-1.84-.81-2.65-.15-.69.55.02,1.31.18,1.93.35,1.35.88,2.66,1.29,3.99.19.63.61,1.26.1,2-1.42,0-2.83-.05-4.24.02-1.08.05-1.51-.47-1.77-1.3-.42-1.33-.79-2.69-1.32-3.99-.61-1.51-1.86-2.38-3.64-2.51-.91-.07-1.49.2-1.15,1.21.36,1.08.67,2.17,1.02,3.25q1.29,3.93-3.23,4.78"/>
    <path class="cls-5" d="M349.89,44.08c0-3.48-3.2-6.5-7-6.6-3.94-.11-7.26,2.83-7.36,6.5-.09,3.68,3.06,6.66,7.09,6.7,3.96.04,7.26-2.96,7.26-6.6M339.47,44.07c.01-1.6,1.51-2.97,3.24-2.96,1.73,0,3.24,1.41,3.21,2.99-.03,1.61-1.52,2.97-3.24,2.96-1.75,0-3.22-1.37-3.21-2.99"/>
    <path class="cls-5" d="M220.89,44.09c.05,3.75,3.21,6.64,7.23,6.61,3.97-.04,7.08-3,7.04-6.7-.05-3.71-3.33-6.64-7.3-6.52-3.84.11-7,3.11-6.96,6.61M231.22,43.99c.07,1.64-1.34,3.06-3.08,3.1-1.74.04-3.31-1.31-3.34-2.88-.03-1.63,1.38-3.04,3.1-3.1,1.75-.06,3.24,1.24,3.32,2.88"/>
    <path class="cls-4" d="M246.87,129.43c-4.19-5.04-7.04-10.68-8.47-16.76-.45-1.91-2.45-3.2-4.56-2.93l-.19.02.03.17c1.18,7.88,4.61,15.42,9.91,21.79,2.45,2.95,5.31,5.64,8.5,8.01-3.21,2.38-6.08,5.08-8.53,8.03-1.04,1.25-2.02,2.56-2.91,3.89l-.1.15.16.09c1.81,1.02,4.21.58,5.47-1.01.22-.28.44-.55.66-.82,3.63-4.37,8.3-8.17,13.52-11,1.67,5.91,1.97,11.91.87,17.85l-.03.17,4.07.63.03-.17c1.2-6.5.88-13.07-.97-19.52-1.66-5.83-4.64-11.48-8.62-16.34l-.11-.14-.15.1c-1.7,1.17-2.13,3.38-.99,5.02,1.89,2.72,3.45,5.64,4.65,8.67-1.23.64-2.44,1.33-3.58,2.04-3.27-2.32-6.18-5-8.65-7.97"/>
    <path class="cls-4" d="M224.97,109.7l-.19.02.02.17c1.23,9.69,5.3,18.93,11.79,26.73,1.84,2.21,3.88,4.32,6.08,6.26l.14.12,2.86-2.73-.14-.12c-2.05-1.81-3.95-3.76-5.66-5.82-5.26-6.33-8.86-13.78-10.43-21.56-.39-1.95-2.37-3.29-4.48-3.07"/>
    <path class="cls-4" d="M216.12,109.68l-.19.02.02.17c1.26,11.48,5.98,22.43,13.65,31.66,2.2,2.65,4.66,5.16,7.31,7.47l.14.12,2.84-2.75-.14-.12c-2.49-2.17-4.8-4.53-6.87-7.02-6.43-7.73-10.7-16.86-12.35-26.41-.34-1.96-2.28-3.34-4.41-3.14"/>
    <path class="cls-4" d="M261.65,166.71c-13.5-3.59-25.27-10.48-34.04-19.93-8.75-9.43-14.32-21.2-16.11-34.03-.27-1.9-2.1-3.26-4.18-3.11h-.19s.02.19.02.19c1.29,14.33,6.97,27.54,16.42,38.19,9.41,10.6,22.19,18.28,36.97,22.21,2.84.76,6.07,1.93,8.65,3.15,1.56.74,2.53,2.19,2.53,3.79v-6.7c-4.38-2.17-8.8-3.42-10.07-3.76"/>
    <path class="cls-4" d="M345.54,109.89l.02-.17-.19-.02c-2.12-.23-4.09,1.12-4.48,3.07-1.57,7.78-5.17,15.23-10.43,21.56-1.71,2.06-3.61,4.02-5.66,5.82l-.14.12,2.86,2.73.14-.12c2.2-1.94,4.25-4.05,6.08-6.25,6.48-7.81,10.56-17.05,11.79-26.74"/>
    <path class="cls-4" d="M333.44,149c2.65-2.31,5.11-4.82,7.31-7.47,7.67-9.23,12.39-20.18,13.65-31.66l.02-.17-.19-.02c-2.13-.19-4.07,1.19-4.41,3.15-1.65,9.55-5.93,18.68-12.35,26.41-2.07,2.48-4.38,4.85-6.87,7.02l-.14.12,2.84,2.75.14-.12Z"/>
    <path class="cls-4" d="M323.51,150.07c.22.27.44.54.66.82,1.26,1.59,3.66,2.03,5.47,1.01l.16-.09-.1-.15c-.89-1.33-1.87-2.64-2.91-3.89-2.45-2.95-5.32-5.65-8.53-8.03,3.19-2.37,6.05-5.07,8.5-8.01,5.3-6.38,8.72-13.91,9.91-21.79l.02-.17-.19-.02c-2.11-.27-4.1,1.02-4.56,2.93-1.43,6.08-4.28,11.71-8.47,16.75-2.47,2.97-5.38,5.66-8.65,7.97-1.15-.72-2.35-1.4-3.58-2.04,1.19-3.03,2.75-5.95,4.64-8.68,1.14-1.65.71-3.85-.99-5.02l-.15-.1-.11.14c-3.98,4.86-6.95,10.51-8.62,16.34-1.84,6.45-2.16,13.02-.96,19.52l.03.17,4.07-.63-.03-.17c-1.1-5.94-.81-11.94.87-17.85,5.22,2.83,9.89,6.64,13.52,11"/>
    <path class="cls-4" d="M301.16,173.38c2.58-1.22,5.81-2.4,8.65-3.15,14.78-3.93,27.57-11.61,36.97-22.21,9.45-10.65,15.13-23.86,16.42-38.19l.02-.17h-.19c-2.07-.17-3.91,1.19-4.17,3.09-1.79,12.84-7.37,24.6-16.11,34.03-8.77,9.45-20.54,16.34-34.04,19.93-1.27.34-5.69,1.59-10.07,3.76v6.7c0-1.6.97-3.05,2.53-3.79"/>
    <path class="cls-4" d="M373.45,104.56h-47v-4.1h43.28c2.06,0,3.72,1.53,3.72,3.42v.68Z"/>
    <path class="cls-4" d="M197.26,104.56h48.09v-4.1h-44.38c-2.05,0-3.72,1.53-3.72,3.42v.68Z"/>
    <path class="cls-5" d="M368.66,90.89c.01-1,0-1.97,0-2.98v-.63h0c0-.58,0-1.18,0-1.82.02-1.55-1.21-1.23-2.19-1.24-.92-.01-1.98-.19-1.98,1.18,0,1.64,0,3.14,0,4.62-.01,1,0,1.97,0,2.98,0,.21,0,.41,0,.62h0c0,.58,0,1.18,0,1.82-.02,1.55,1.21,1.23,2.19,1.24.92.01,1.99.19,1.98-1.18,0-1.64,0-3.14,0-4.62"/>
    <path class="cls-5" d="M359.23,90.89c.01-1,0-1.97,0-2.98v-.63h0c0-.58,0-1.18,0-1.82.02-1.55-1.21-1.23-2.19-1.24-.92-.01-1.98-.19-1.98,1.18,0,1.64,0,3.14,0,4.62-.01,1,0,1.97,0,2.98v.62h0c0,.58,0,1.18,0,1.82-.02,1.55,1.21,1.23,2.19,1.24.92.01,1.99.19,1.98-1.18,0-1.64,0-3.14,0-4.62"/>
    <path class="cls-5" d="M349.81,90.89c.01-1,0-1.97,0-2.98v-.63h0c0-.58,0-1.18,0-1.82.02-1.55-1.21-1.23-2.19-1.24-.92-.01-1.98-.19-1.98,1.18,0,1.64,0,3.14,0,4.62-.01,1,0,1.97,0,2.98,0,.21,0,.41,0,.62h0c0,.58,0,1.18,0,1.82-.02,1.55,1.21,1.23,2.19,1.24.92.01,1.99.19,1.98-1.18,0-1.64,0-3.14,0-4.62"/>
    <path class="cls-5" d="M340.39,90.89c.01-1,0-1.97,0-2.98v-.63h0c0-.58,0-1.18,0-1.82.02-1.55-1.21-1.23-2.19-1.24-.92-.01-1.98-.19-1.98,1.18,0,1.64,0,3.14,0,4.62-.01,1,0,1.97,0,2.98,0,.21,0,.41,0,.62h0c0,.58,0,1.18,0,1.82-.02,1.55,1.21,1.23,2.19,1.24.92.01,1.99.19,1.98-1.18,0-1.64,0-3.14,0-4.62"/>
    <path class="cls-5" d="M330.96,90.89c.01-1,0-1.97,0-2.98v-.63h0c0-.58,0-1.18,0-1.82.02-1.55-1.21-1.23-2.19-1.24-.92-.01-1.98-.19-1.98,1.18,0,1.64,0,3.14,0,4.62-.01,1,0,1.97,0,2.98,0,.21,0,.41,0,.62h0c0,.58,0,1.18,0,1.82-.02,1.55,1.21,1.23,2.19,1.24.92.01,1.99.19,1.98-1.18,0-1.64,0-3.14,0-4.62"/>
    <path class="cls-5" d="M245.35,90.89c.01-1,0-1.97,0-2.98v-.63h0c0-.58,0-1.18,0-1.82.02-1.55-1.21-1.23-2.19-1.24-.92-.01-1.98-.19-1.98,1.18,0,1.64,0,3.14,0,4.62-.01,1,0,1.97,0,2.98,0,.21,0,.41,0,.62h0c0,.58,0,1.18,0,1.82-.02,1.55,1.21,1.23,2.19,1.24.92.01,1.99.19,1.98-1.18,0-1.64,0-3.14,0-4.62"/>
    <path class="cls-5" d="M235.92,90.89c.01-1,0-1.97,0-2.98v-.63h0c0-.58,0-1.18,0-1.82.02-1.55-1.21-1.23-2.19-1.24-.92-.01-1.98-.19-1.98,1.18,0,1.64,0,3.14,0,4.62-.01,1,0,1.97,0,2.98,0,.21,0,.41,0,.62h0c0,.58,0,1.18,0,1.82-.02,1.55,1.21,1.23,2.19,1.24.92.01,1.99.19,1.98-1.18,0-1.64,0-3.14,0-4.62"/>
    <path class="cls-5" d="M226.5,90.89c.01-1,0-1.97,0-2.98v-.63h0c0-.58,0-1.18,0-1.82.02-1.55-1.21-1.23-2.19-1.24-.92-.01-1.98-.19-1.98,1.18,0,1.64,0,3.14,0,4.62-.01,1,0,1.97,0,2.98v.62h0c0,.58,0,1.18,0,1.82-.02,1.55,1.21,1.23,2.19,1.24.92.01,1.99.19,1.98-1.18,0-1.64,0-3.14,0-4.62"/>
    <path class="cls-5" d="M217.07,90.89c.01-1,0-1.97,0-2.98v-.63h0c0-.58,0-1.18,0-1.82.02-1.55-1.21-1.23-2.19-1.24-.92-.01-1.98-.19-1.98,1.18,0,1.64,0,3.14,0,4.62-.01,1,0,1.97,0,2.98,0,.21,0,.41,0,.62h0c0,.58,0,1.18,0,1.82-.02,1.55,1.21,1.23,2.19,1.24.92.01,1.99.19,1.98-1.18,0-1.64,0-3.14,0-4.62"/>
    <path class="cls-5" d="M207.65,90.89c.01-1,0-1.97,0-2.98v-.63h0c0-.58,0-1.18,0-1.82.02-1.55-1.21-1.23-2.19-1.24-.92-.01-1.98-.19-1.98,1.18,0,1.64,0,3.14,0,4.62-.01,1,0,1.97,0,2.98,0,.21,0,.41,0,.62h0c0,.58,0,1.18,0,1.82-.02,1.55,1.21,1.23,2.19,1.24.92.01,1.99.19,1.98-1.18,0-1.64,0-3.14,0-4.62"/>
    <path class="cls-5" d="M228.25,160c-14.47-12.38-23.63-28.85-26.05-46.71-.28-2.07-2.26-3.59-4.53-3.44,1.67,20.25,11.53,39.04,27.76,52.93,14.44,12.35,32.76,19.78,52.24,21.34v-3.82c-18.43-1.54-35.75-8.61-49.42-20.3"/>
    <path class="cls-5" d="M368.51,113.21c-2.41,17.88-11.56,34.37-26.03,46.76-13.38,11.46-30.27,18.47-48.28,20.21v3.83c19.06-1.75,36.95-9.15,51.1-21.26,16.24-13.9,26.1-32.72,27.74-52.99-2.27-.15-4.25,1.37-4.53,3.45"/>
    <path class="cls-4" d="M286.54,128c1.74,5.76,1.75,11.65,1.71,17.56-.07,9.82-.02,26.05-.02,35.86,0,.43.02.87,0,1.3-.04.59.23,1.4-.44,1.67-1.1.45-2.4.22-3.54-.03-.01-.95-.05-1.89-.05-2.84,0-9.21-.07-24.83.04-34.04.05-4.19-1.48-7.57-4.72-10.47-5.29-4.73-10.5-9.53-15.68-14.35-7.14-6.64-11.01-14.63-11.5-23.98-.02-.51-.17-1.02-.26-1.53.23-2.07.37-4.14.02-6.21.23-.52.21-1.04.02-1.57.22-1.22.26-2.43-.01-3.65.16-.35.16-.7,0-1.05.45-1.43-.18-2.94.39-4.36,2.52.13,3.6,1.08,3.9,3.41.25,1.98.4,3.98.79,5.93,1,5.02,3.72,9.23,7.58,12.83,3.71,3.46,7.41,6.93,11.19,10.33,4.53,4.08,7.95,8.78,10.03,14.3.12.32.35.6.53.9M283.48,135.35c.37-1.18.13-1.85-.01-2.52-1.42-6.58-4.79-12.2-9.91-16.96-3.06-2.84-6.11-5.69-9.21-8.48-2.51-2.27-4.64-4.8-6.54-7.51-.32-.46-.37-1.21-1.28-1.16,0,.62-.07,1.23.01,1.82,1,7.48,4.28,13.98,10.09,19.35,4.4,4.07,8.83,8.1,13.24,12.15,1.12,1.03,2.25,2.05,3.62,3.31"/>
    <path class="cls-5" d="M294.04,83.27c-.05,1.44-.91,2.45-2.09,2.46-1.33,0-2.17-1.17-2.12-2.95.05-1.62.54-2.22,1.83-2.23,1.5-.01,2.43,1.05,2.37,2.72"/>
    <path class="cls-5" d="M285.42,105.17c1.08.04,2.27,1.57,2.17,2.8-.12,1.47-.97,2.37-2.21,2.34-1.32-.02-2.32-1.28-2.28-2.88.03-1.21,1.15-2.3,2.33-2.26"/>
    <path class="cls-5" d="M285.36,117.1c-1.26-.03-2.29-1.27-2.25-2.68.04-1.25,1.14-2.46,2.25-2.47,1.07,0,2.32,1.55,2.23,2.79-.1,1.48-.97,2.4-2.23,2.36"/>
    <path class="cls-5" d="M285.33,64.39c1.26.06,2.35,1.33,2.27,2.65-.07,1.14-1.32,2.48-2.27,2.45-1.19-.03-2.31-1.4-2.22-2.72.09-1.36,1.11-2.44,2.22-2.39"/>
    <path class="cls-5" d="M294.04,89.86c.04,1.55-.88,2.69-2.15,2.66-1.18-.03-2.02-1.05-2.06-2.49-.03-1.55.89-2.69,2.15-2.66,1.19.03,2.02,1.04,2.06,2.49"/>
    <path class="cls-5" d="M285.33,71.18c1.26.06,2.35,1.34,2.27,2.66-.07,1.14-1.31,2.48-2.27,2.45-1.2-.03-2.31-1.4-2.21-2.72.1-1.36,1.11-2.45,2.22-2.39"/>
    <path class="cls-5" d="M285.21,89.91c-1.09.01-2.09-1.2-2.1-2.55-.01-1.25,1.03-2.49,2.16-2.56.98-.06,2.27,1.28,2.33,2.43.07,1.19-1.25,2.66-2.39,2.68"/>
    <path class="cls-5" d="M289.84,76.33c.02-1.47.86-2.5,2.06-2.53,1.21-.03,2.17,1.07,2.12,2.45-.05,1.56-1.23,2.79-2.6,2.68-1.02-.08-1.61-1.04-1.58-2.6"/>
    <path class="cls-5" d="M294.04,103.58c-.02,1.47-.87,2.5-2.07,2.52-1.22.02-2.16-1.07-2.12-2.46.04-1.55,1.06-2.78,2.23-2.69,1.18.09,1.98,1.16,1.96,2.63"/>
    <path class="cls-5" d="M287.59,93.74c.04,1.44-1.12,2.91-2.33,2.96-1.07.04-2.08-1.11-2.14-2.45-.06-1.32,1.07-2.67,2.26-2.67.89,0,2.19,1.26,2.22,2.16"/>
    <path class="cls-5" d="M289.84,69.48c.04-1.44.92-2.48,2.12-2.47,1.29.01,2.16,1.16,2.09,2.76-.06,1.35-.89,2.35-1.94,2.34-1.32-.01-2.3-1.15-2.27-2.63"/>
    <path class="cls-5" d="M270.04,92c.02-1.41,1.15-2.58,2.4-2.48.95.07,1.83,1.44,1.8,2.81-.03,1.24-.89,2.24-1.99,2.3-1.28.07-2.22-1.06-2.2-2.62"/>
    <path class="cls-5" d="M289.84,96.77c-.01-1.47.85-2.59,1.96-2.55,1.19.04,2.24,1.31,2.24,2.73,0,1.35-.99,2.43-2.18,2.37-1.17-.06-2.01-1.12-2.02-2.55"/>
    <path class="cls-5" d="M296.59,85.1c.1-1.37,1.11-2.4,2.26-2.29,1.14.11,2.08,1.55,1.93,2.95-.13,1.23-1.08,2.11-2.21,2.06-1.4-.06-2.09-1.03-1.97-2.73"/>
    <path class="cls-5" d="M274.24,78.54c-.03,1.45-.86,2.47-2.05,2.5-1.27.04-2.19-1.1-2.15-2.66.03-1.39.98-2.41,2.18-2.35,1.21.05,2.05,1.09,2.02,2.51"/>
    <path class="cls-5" d="M294.05,110.44c-.05,1.44-.92,2.45-2.11,2.45-1.28,0-2.16-1.15-2.1-2.72.05-1.37,1.05-2.39,2.24-2.3,1.22.09,2.02,1.13,1.97,2.57"/>
    <path class="cls-5" d="M276.53,83.27c.05,1.44.91,2.45,2.09,2.46,1.33,0,2.17-1.17,2.12-2.95-.05-1.62-.54-2.22-1.83-2.23-1.5-.01-2.43,1.05-2.37,2.72"/>
    <path class="cls-5" d="M276.53,89.86c-.04,1.55.88,2.69,2.15,2.66,1.18-.03,2.02-1.05,2.06-2.49.03-1.55-.89-2.69-2.15-2.66-1.19.03-2.02,1.04-2.06,2.49"/>
    <path class="cls-5" d="M280.73,76.33c-.02-1.47-.86-2.5-2.06-2.53-1.21-.03-2.17,1.07-2.12,2.45.05,1.56,1.23,2.79,2.6,2.68,1.02-.08,1.61-1.04,1.58-2.6"/>
    <path class="cls-5" d="M276.53,103.58c.02,1.47.87,2.5,2.07,2.52,1.22.02,2.16-1.07,2.12-2.46-.04-1.55-1.06-2.78-2.23-2.69-1.18.09-1.98,1.16-1.96,2.63"/>
    <path class="cls-5" d="M280.73,69.48c-.04-1.44-.92-2.48-2.12-2.47-1.29.01-2.16,1.16-2.09,2.76.06,1.35.89,2.35,1.94,2.34,1.32-.01,2.3-1.15,2.27-2.63"/>
    <path class="cls-5" d="M280.73,96.77c.01-1.47-.85-2.59-1.96-2.55-1.19.04-2.23,1.31-2.23,2.73,0,1.35.99,2.43,2.18,2.37,1.17-.06,2.01-1.12,2.02-2.55"/>
    <path class="cls-5" d="M276.52,110.44c.05,1.44.92,2.45,2.11,2.45,1.28,0,2.16-1.15,2.1-2.72-.05-1.37-1.05-2.39-2.24-2.3-1.22.09-2.02,1.13-1.97,2.57"/>
    <path class="cls-5" d="M274.24,98.75c.04,1.45-.77,2.55-1.93,2.66-1.19.11-2.24-.96-2.27-2.32-.02-1.35.9-2.61,1.98-2.7,1.18-.1,2.19.98,2.22,2.36"/>
    <path class="cls-5" d="M296.59,78.67c-.01-1.51.74-2.67,1.78-2.73,1.01-.06,2.41,1.47,2.39,2.62-.02,1.31-1.03,2.49-2.11,2.49-1.3,0-2.05-.86-2.06-2.38"/>
    <path class="cls-5" d="M274.25,85.47c-.08,1.43-1.04,2.44-2.23,2.36-1.2-.08-2.07-1.25-1.95-2.62.12-1.4,1.16-2.51,2.27-2.4,1.22.12,2,1.2,1.92,2.66"/>
    <path class="cls-5" d="M263.42,87.47c.02-1.3,1.07-2.39,2.22-2.31.88.07,1.7,1.33,1.67,2.6-.02,1.15-.83,2.08-1.85,2.13-1.19.06-2.06-.98-2.04-2.43"/>
    <path class="cls-5" d="M267.32,93.73c.03,1.35-.71,2.37-1.79,2.47-1.11.1-2.08-.89-2.1-2.15-.02-1.26.83-2.42,1.84-2.51,1.09-.09,2.03.91,2.06,2.19"/>
    <path class="cls-5" d="M267.32,81.41c-.07,1.32-.96,2.27-2.07,2.19-1.11-.08-1.92-1.16-1.81-2.43.11-1.3,1.07-2.32,2.1-2.22,1.13.11,1.86,1.11,1.78,2.47"/>
    <path class="cls-5" d="M307.37,87.47c-.02-1.3-1.07-2.39-2.22-2.31-.88.07-1.7,1.33-1.67,2.6.02,1.15.83,2.08,1.85,2.13,1.19.06,2.06-.98,2.04-2.43"/>
    <path class="cls-5" d="M303.47,93.73c-.03,1.35.71,2.37,1.79,2.47,1.11.1,2.08-.89,2.1-2.15.02-1.26-.83-2.42-1.84-2.51-1.09-.09-2.03.91-2.06,2.19"/>
    <path class="cls-5" d="M303.47,81.41c.07,1.32.96,2.27,2.07,2.19,1.11-.08,1.92-1.16,1.81-2.43-.11-1.3-1.07-2.32-2.1-2.22-1.13.11-1.85,1.11-1.78,2.47"/>
    <path class="cls-5" d="M287.28,100.93c0,1.43-.81,2.48-1.98,2.56-1.16.08-2.24-1.23-2.19-2.66.04-1.24,1.11-2.42,2.21-2.45,1.1-.03,1.96,1.09,1.95,2.54"/>
    <path class="cls-5" d="M298.66,89.61c.94.03,2.15,1.5,2.1,2.57-.05,1.33-1.08,2.49-2.17,2.44-1.26-.06-2.1-1.24-2-2.81.08-1.23,1.02-2.23,2.06-2.2"/>
    <path class="cls-5" d="M287.28,80.65c-.03,1.3-.86,2.41-1.82,2.44-1.02.03-2.39-1.54-2.35-2.67.05-1.21,1.2-2.42,2.28-2.4,1.08.02,1.92,1.2,1.89,2.63"/>
    <path class="cls-5" d="M296.6,99.03c0-1.61.5-2.27,1.78-2.32,1.33-.05,2.39.91,2.39,2.16,0,1.31-1,2.52-2.09,2.53-1.32,0-2.07-.86-2.07-2.38"/>
  </g>
  <rect class="cls-3" x=".34" width="578.42" height="438.91"/>
</svg>