<?xml version="1.0" encoding="UTF-8"?>
<svg id="a" data-name="Capa 1" xmlns="http://www.w3.org/2000/svg" viewBox="0 0 127.2 112.32">
  <defs>
    <style>
      .b {
        fill: none;
      }

      .c {
        fill: #71795c;
      }

      .d {
        fill: #c49a6e;
      }
    </style>
  </defs>
  <g>
    <path class="c" d="M65.17,70.12c-.58.53-.79,1.32-1.31,1.95-.51-.56-.5-1.3-.97-1.78.68-1.42,1.68-2.6,2.77-3.71,1.64-1.68,3.29-3.35,4.98-4.99,2.36-2.3,3.69-5.05,3.89-8.35.03-.42.09-.83.14-1.25.06-.49.31-.87.69-1.15.27-.2.57-.44.91-.27.31.16.18.52.18.79,0,2.64.05,5.29-.01,7.93-.08,3.54-1.23,6.74-3.26,9.62-.19.27-.37.55-.55.83-.38.32-.74.66-.96,1.11-.93.75-1.78,1.58-2.53,2.52-.33.17-.58.42-.75.76-.42.25-.76.58-1,1.01-.89.59-1.46,1.55-2.45,2.17-.05-.29-.06-.5-.13-.68-.35-.98-.12-1.77.74-2.39.23-.16.37-.44.55-.66.37-.17.63-.46.83-.81.24-.09.41-.26.52-.5,1.44-1.28,2.85-2.61,4.02-4.14,1.95-2.56,2.97-5.47,3.16-8.72-.14.06-.25.07-.28.13-1.49,2.74-3.85,4.73-5.98,6.92-.79.81-1.68,1.52-2.29,2.48-.39.32-.7.69-.88,1.16l-.02.02Z"/>
    <path class="c" d="M43.45,50.07c0-.54-.43-.97-.97-.98-2.07-.01-4.13-.03-6.2-.04-2.39.02-4.78.09-7.17.03-1.98-.06-3.71-1.47-4.32-3.32-.63-1.92-.08-3.9,1.46-5.25,1.03-.9,2.24-1.28,3.59-1.28,3.31,0,6.61.02,9.92-.01,2.36-.02,4.25-1.94,4.28-4.3.02-1.38.01-2.77.01-4.15,0-3.23-.04-1.93.02-5.16.04-2.38,1.62-4.36,3.86-5.06,2.2-.68,4.52.06,5.97,1.9,1.15,1.47,1.34,3.12.93,4.89-.04.16-.12.31-.17.47-.24.8-.1,1.28.42,1.49.54.22,1.06-.06,1.33-.8.94-2.55.65-4.97-.99-7.15-1.6-2.14-3.83-3.15-6.48-2.9-3.93.37-6.64,3.38-6.77,7.32-.04,1.22-.01,2.43-.01,3.65,0,3.15.02,1.76,0,4.91,0,2.21-1.09,3.17-3.1,3.08-.38-.02-.76,0-1.13,0-2.85,0-5.71,0-8.56.01-3.03.02-5.62,2-6.44,4.88-.82,2.93.31,5.91,2.86,7.57,1.24.8,2.6,1.14,4.06,1.15,2.98.02,5.95.04,8.93.06,1.23,0,2.45-.02,3.68-.03.54,0,.97-.44.97-.98"/>
    <path class="c" d="M83.81,51.03c2.77,0,5.54,0,8.31,0,1.68,0,3.23-.41,4.6-1.43,3.31-2.45,3.62-7.2.88-10.07-1.34-1.4-2.97-2.13-4.93-2.12-3.28.02-6.55.01-9.82,0-2.04,0-2.89-.87-2.94-2.92,0-.38,0-.76,0-1.13,0-4.07.03-3.61,0-7.68-.03-4.21-3.75-7.56-7.85-7.24-3.99.31-7.47,3.86-6.76,8.62.09.58.24,1.15.52,1.68.32.58.76.78,1.23.56.5-.23.62-.65.5-1.15-.1-.41-.24-.8-.33-1.21-.73-3.31,1.77-6.51,5.15-6.62,3.11-.1,5.67,2.3,5.71,5.46.05,4.45.02,4.36.02,8.81,0,.5-.02,1.01.11,1.5.48,1.86,2.08,3.13,4.06,3.14,3.32.02,6.63,0,9.95,0,1.59,0,2.98.47,4.06,1.66,1.37,1.52,1.67,3.29.92,5.15-.75,1.87-2.22,2.96-4.25,3.04-2.1.08-4.2.03-6.3.03-2.13,0-4.26,0-6.39,0-.53,0-.97.43-.96.97,0,.53.43.95.96.95h3.56Z"/>
    <path class="d" d="M47.11,45.05c-5.5-.01-11,0-16.5,0-.38,0-.76,0-1.13-.02-.54-.04-.86-.37-.86-.9,0-.54.34-.84.87-.9.33-.04.67-.03,1.01-.03,3.02,0,6.05,0,9.07.01,4.96,0,8.51-3.5,8.54-8.45.02-4.16,0-3.78,0-7.93,0-.42-.02-.85.05-1.26.13-.73.71-1.2,1.4-1.2.65,0,1.15.42,1.34,1.11.03.12.01.25.04.38.17.72.54,1.05,1.07.98.58-.07.9-.58.84-1.33-.19-2.33-2.83-3.75-4.88-2.62-1.28.7-1.73,1.83-1.73,3.25.02,4.2,0,3.86.01,8.06,0,.68-.01,1.35-.16,2-.59,2.62-2.21,4.29-4.79,4.96-.72.19-1.5.16-2.25.17-3.15.02-6.3,0-9.45.04-1.76.03-2.91,1.21-2.88,2.83.03,1.56,1.17,2.64,2.88,2.72.46.02.92,0,1.38,0,1.01.03,2.01-.07,3.02.08,2.93-.17,5.87-.04,8.8-.07,1.59-.02,3.19-.04,4.78.05,1.03.06,1.96.38,2.74.9h2.69c-1.38-1.71-3.51-2.82-5.91-2.83"/>
    <path class="d" d="M74.92,46.95c2.85-.01,5.71,0,8.56,0h0c2.81,0,5.63,0,8.44,0,.46,0,.92.02,1.38-.1,1.56-.41,2.44-1.99,1.96-3.52-.41-1.3-1.4-1.96-3.02-1.97-3.15,0-6.3,0-9.45,0-.76,0-1.51-.02-2.25-.23-2.88-.84-4.68-3.28-4.69-6.41-.01-4.45.02-4.37,0-8.82-.01-2.27-1.86-3.74-4.05-3.28-1.42.3-2.52,1.65-2.52,3.07,0,.7.32,1.16.86,1.18.6.02.93-.31.98-.91.02-.17.05-.33.1-.49.23-.69.73-1.07,1.39-1.06.64,0,1.19.42,1.35,1.11.09.36.07.75.07,1.12,0,4.28,0,4.03,0,8.32,0,.59.02,1.17.15,1.75.86,3.85,4.08,6.49,8.04,6.52,3.15.03,6.3,0,9.45,0,.34,0,.68-.02,1,.03.52.08.84.4.8.95-.03.48-.33.77-.81.82-.42.04-.84.03-1.26.03-5.38,0-10.75,0-16.12,0-.94,0-1.84.14-2.72.43-1.47.48-2.69,1.39-3.58,2.55h2.57c.92-.7,2.04-1.08,3.36-1.08"/>
    <path class="c" d="M95.39,25.7c-1.74.49-2.68,2.27-2.08,3.97.28.8.81,1.36,1.67,1.55.4.09.77-.02.97-.41.18-.36.17-.74-.08-1.07-.1-.13-.26-.21-.38-.32-.75-.7-.54-1.57.44-1.89,1.08-.35,2.3.45,2.52,1.65.38,2.08-1.32,3.76-3.4,3.37-1.44-.27-2.29-1.19-2.72-2.51-.78-2.4-3.21-3.95-5.86-3.91-1.51,0-2.89.43-4.1,1.35-.41.32-.74.68-.78,1.23-.03.53.03,1.07.52,1.33.56.29.66-.37.9-.63,2.12-2.26,6.69-1.77,7.58,1.38.22.77.64,1.46,1.2,2.04,1.4,1.47,3.11,1.9,5.05,1.48,1.89-.41,2.92-1.67,3.35-3.49.13-.58.14-1.17.09-1.75-.21-2.4-2.58-4.03-4.9-3.38"/>
    <path class="c" d="M22.54,27.02c-.99,1.68-1,3.44-.12,5.15.83,1.6,2.25,2.3,4.68,2.32.9.02,2.22-.53,3.27-1.68.57-.62.94-1.38,1.23-2.17.53-1.49,1.66-2.27,3.17-2.52,1.83-.3,3.39.19,4.61,1.65.43.51.67.46.99-.12.36-.67.25-1.34-.36-1.93-.58-.57-1.3-.9-2.05-1.18-2.61-1.02-6.9-.2-8.18,3.57-.15.43-.36.85-.63,1.22-.84,1.15-2.38,1.6-3.7,1.13-1.18-.42-1.85-1.57-1.76-3.02.06-.93.55-1.57,1.42-1.86.71-.24,1.48-.05,1.81.45.34.51.24.85-.48,1.56-.37.36-.54.75-.27,1.23.24.43.77.57,1.33.31.87-.4,1.32-1.13,1.45-2.06.2-1.49-.57-2.73-1.99-3.26-1.46-.54-3.73.04-4.43,1.22"/>
    <path class="d" d="M60.01,32.52c-.45-.58-.85-1.14-1.31-1.65-.78-.87-1.5-.98-2.73-.42.39.38.71.68,1.01.98,1.59,1.58,2.62,3.46,3.05,5.66.22,1.1.23,2.24.23,3.36,0,.51.16.71.69.7.84-.02.89-.03.9-.92,0-.33,0-.65.01-.98.04-3.17,1.21-5.85,3.5-8.04.16-.15.33-.29.48-.44.27-.27.14-.47-.15-.56-.83-.26-1.59-.1-2.19.55-.39.43-.71.91-1.08,1.36-.14.17-.17.52-.58.39v-1.41c0-1.38,0-2.76,0-4.13,0-.24.09-.59-.19-.68-.37-.12-.8-.14-1.17,0-.34.14-.21.51-.21.78-.01,1.49,0,2.97-.01,4.46,0,.33.12.71-.25.98"/>
    <path class="c" d="M58.72,40.38c.09-1.63-.64-2.84-2.08-3.57-.46-.24-.66-.46-.42-.96.09-.19.15-.39.19-.6.41-2.19-1.33-4.12-3.47-3.84-.84.11-1.51.51-1.94,1.24-.23.39-.23.82.09,1.17.24.26.55.41.91.25.22-.1.44-.26.61-.43.42-.43.86-.47,1.35-.16.52.33.73.91.56,1.53-.23.8-.85,1.33-1.74,1.4-.54.04-1.09,0-1.64.01-1,0-1.01,0-1.25.95-.49,1.87-1.37,3.51-2.77,4.85-.2.19-.48.34-.53.76.49.03.99,0,1.45.12.7.17,1.08-.15,1.46-.66.8-1.09,1.47-2.25,1.88-3.54.16-.49.42-.66.91-.65.8.03,1.6-.03,2.39.02,1.04.07,1.88.7,2.12,1.51.24.81-.44,1.71-1.23,1.65-.42-.03-.64-.36-.93-.6-.4-.33-.84-.39-1.24,0-.4.38-.36.82-.1,1.26.2.33.48.58.8.79,1.86,1.2,4.49-.22,4.62-2.51"/>
    <path class="c" d="M69.64,33.78c.45.36.88.49,1.35.09.42-.35.42-.92-.01-1.46-.46-.59-1.08-.91-1.82-1-2.11-.24-3.85,1.57-3.38,3.74.22,1.02.09,1.48-.83,2.02-1.26.73-1.69,2.04-1.49,3.49.18,1.24.92,2.04,2.07,2.47,1.25.47,2.74-.02,3.32-1.07.3-.54.23-1.04-.22-1.33-.53-.34-.92-.09-1.33.28-.62.55-1.03.55-1.54.12-.52-.44-.63-1.08-.27-1.7.43-.76,1.15-1.1,1.98-1.15.79-.05,1.59,0,2.39-.03.51-.03.76.19.9.65.31,1.01.84,1.91,1.38,2.82.6,1.01,1.3,1.72,2.61,1.32.23-.07.5-.04.74-.05.04-.07.09-.15.13-.22-1.86-1.55-2.96-3.53-3.48-5.83-.1-.42-.33-.52-.71-.52-.67.01-1.35.03-2.01-.01-.88-.05-1.53-.57-1.79-1.35-.18-.53-.06-1,.31-1.4.48-.52.94-.5,1.72.11"/>
    <path class="d" d="M85.5,18.22c-.34-.25-.73-.03-1.07.13-.43.2-.76.53-.91.99-.14.4-.22.81-.39,1.19-.33.78-.21,1.76-1.04,2.33-.21.14-.04.39.02.58.12.35.26.7.41,1.1,3.35-.8,6.55-.98,9.53.94.41.26.64.05.84-.22.23-.33.93-.59.47-1.1-.38-.42-.21-.76-.1-1.14.21-.77.48-1.52.67-2.29.08-.3.39-.64.11-.94-.31-.33-.7-.03-1.06,0-.4.03-.56.3-.75.57-.32.46-.42.99-.58,1.52-.31,1.02-.31,1.02-1.36.71-.08-.02-.16-.05-.24-.07-.59-.09-.75-.39-.56-.97.28-.83.52-1.68.75-2.53.16-.59-.02-.78-.6-.68-.95.16-1.41.81-1.66,1.67-.2.67-.16,1.57-.73,1.94-.6.39-1.47.1-2.22.16-.08,0-.15-.05-.26-.09.11-.96.55-1.83.75-2.77.08-.35.4-.74,0-1.03"/>
    <path class="d" d="M30.88,22.8c-.41-.55-.43-1.25-.68-1.87-.29-.72-.79-1.17-1.58-1.26-.51-.06-.68.13-.54.66.24.89.52,1.77.78,2.65.11.39.24.74-.09,1.17-.49.62.32.81.54,1.19.2.35.49.32.84.09,2.61-1.67,5.44-1.74,8.36-1.12,1.12.24,1.28.17,1.53-.94.06-.26.1-.5-.17-.66-.42-.24-.45-.68-.57-1.07-.21-.68-.4-1.37-.61-2.05-.17-.54-.45-1-.98-1.25-.38-.17-.81-.39-1.18-.07-.3.27,0,.63.08.93.16.65.39,1.28.57,1.93.09.3.27.61.05.97-.63,0-1.25-.02-1.88,0-.48.02-.67-.23-.79-.63-.18-.64-.35-1.3-.58-1.92-.27-.73-.83-1.15-1.61-1.21-.4-.03-.66.1-.51.58.16.52.29,1.05.45,1.57q.57,1.9-1.43,2.31"/>
    <path class="d" d="M89.65,33.14c0-1.68-1.42-3.14-3.1-3.18-1.74-.05-3.22,1.36-3.26,3.13-.04,1.77,1.36,3.21,3.14,3.23,1.75.02,3.22-1.43,3.22-3.18M85.03,33.14c0-.77.67-1.43,1.43-1.43.77,0,1.43.68,1.42,1.44-.01.78-.67,1.43-1.44,1.43-.78,0-1.43-.66-1.42-1.44"/>
    <path class="d" d="M32.5,33.15c.02,1.81,1.42,3.21,3.2,3.19,1.76-.02,3.14-1.45,3.12-3.23-.02-1.79-1.47-3.2-3.24-3.15-1.7.05-3.1,1.5-3.08,3.19M37.08,33.1c.03.79-.59,1.48-1.36,1.5-.77.02-1.47-.63-1.48-1.39-.01-.79.61-1.47,1.37-1.5.78-.03,1.44.6,1.47,1.39"/>
    <path class="c" d="M44.01,74.31c-1.86-2.43-3.12-5.15-3.75-8.08-.2-.92-1.09-1.54-2.02-1.41h-.08s.01.09.01.09c.52,3.8,2.04,7.44,4.39,10.51,1.08,1.42,2.35,2.72,3.76,3.87-1.42,1.15-2.69,2.45-3.78,3.88-.46.6-.89,1.23-1.29,1.88l-.04.07.07.04c.8.49,1.86.28,2.42-.49.1-.13.19-.26.29-.39,1.61-2.11,3.68-3.94,5.99-5.31.74,2.85.87,5.75.38,8.61v.08s1.79.31,1.79.31v-.08c.55-3.14.4-6.3-.41-9.42-.74-2.81-2.06-5.54-3.82-7.88l-.05-.07-.07.05c-.75.57-.94,1.63-.44,2.42.84,1.31,1.53,2.72,2.06,4.18-.55.31-1.08.64-1.59.99-1.45-1.12-2.74-2.41-3.83-3.85"/>
    <path class="c" d="M34.31,64.8h-.08s0,.09,0,.09c.54,4.67,2.35,9.13,5.22,12.9.81,1.07,1.72,2.08,2.69,3.02l.06.06,1.27-1.32-.06-.06c-.91-.87-1.75-1.82-2.51-2.81-2.33-3.05-3.93-6.65-4.62-10.4-.17-.94-1.05-1.59-1.98-1.48"/>
    <path class="c" d="M30.39,64.78h-.08s0,.09,0,.09c.56,5.54,2.65,10.82,6.04,15.28.98,1.28,2.06,2.49,3.24,3.6l.06.06,1.26-1.33-.06-.06c-1.1-1.05-2.13-2.19-3.04-3.39-2.85-3.73-4.74-8.14-5.47-12.74-.15-.95-1.01-1.61-1.95-1.52"/>
    <path class="c" d="M50.56,92.3c-5.98-1.73-11.2-5.05-15.08-9.61-3.88-4.55-6.34-10.23-7.14-16.42-.12-.92-.93-1.58-1.85-1.5h-.08s0,.09,0,.09c.57,6.91,3.09,13.28,7.27,18.42,4.17,5.11,9.83,8.82,16.38,10.72,1.26.36,2.69.93,3.83,1.52.69.36,1.12,1.06,1.12,1.83v-3.23c-1.94-1.05-3.9-1.65-4.46-1.81"/>
    <path class="c" d="M87.73,64.89v-.08s-.07-.01-.07-.01c-.94-.11-1.81.54-1.98,1.48-.69,3.75-2.29,7.35-4.62,10.4-.76.99-1.6,1.94-2.51,2.81l-.06.06,1.27,1.32.06-.06c.97-.94,1.88-1.95,2.69-3.02,2.87-3.77,4.68-8.23,5.22-12.9"/>
    <path class="c" d="M82.36,83.75c1.17-1.11,2.26-2.33,3.24-3.6,3.4-4.45,5.49-9.74,6.05-15.28v-.08s-.07,0-.07,0c-.94-.09-1.8.57-1.95,1.52-.73,4.6-2.62,9.01-5.47,12.74-.91,1.2-1.94,2.34-3.04,3.39l-.06.06,1.26,1.33.06-.06Z"/>
    <path class="c" d="M77.97,84.27c.1.13.2.26.29.4.56.77,1.62.98,2.42.49l.07-.04-.04-.07c-.39-.64-.83-1.27-1.29-1.88-1.09-1.42-2.36-2.73-3.78-3.88,1.41-1.14,2.68-2.44,3.77-3.86,2.35-3.08,3.86-6.71,4.39-10.51v-.08s-.07-.01-.07-.01c-.93-.13-1.82.49-2.02,1.41-.64,2.93-1.9,5.65-3.75,8.08-1.09,1.43-2.38,2.73-3.83,3.85-.51-.34-1.04-.68-1.59-.98.53-1.46,1.22-2.87,2.06-4.19.51-.79.31-1.86-.44-2.42l-.07-.05-.05.07c-1.76,2.34-3.08,5.07-3.82,7.88-.82,3.11-.96,6.28-.43,9.42v.08s1.82-.3,1.82-.3v-.08c-.5-2.87-.37-5.76.37-8.61,2.31,1.37,4.38,3.2,5.99,5.31"/>
    <path class="c" d="M68.06,95.52c1.14-.59,2.57-1.16,3.83-1.52,6.55-1.89,12.21-5.6,16.38-10.72,4.19-5.14,6.7-11.51,7.27-18.42v-.08s-.08,0-.08,0c-.92-.07-1.73.58-1.85,1.5-.79,6.19-3.26,11.87-7.14,16.42-3.88,4.56-9.1,7.88-15.08,9.61-.56.16-2.52.77-4.46,1.81v3.23c0-.77.43-1.47,1.12-1.83"/>
    <path class="c" d="M100.09,62.32h-20.82v-1.98h19.17c.91,0,1.65.74,1.65,1.65v.33Z"/>
    <path class="c" d="M22.03,62.32h21.3v-1.98h-19.66c-.91,0-1.65.74-1.65,1.65v.33Z"/>
    <path class="d" d="M97.97,55.72c0-.48,0-.95,0-1.44v-.3h0c0-.28,0-.57,0-.88,0-.75-.54-.59-.97-.6-.41,0-.88-.09-.88.57,0,.79,0,1.52,0,2.23,0,.48,0,.95,0,1.44,0,.1,0,.2,0,.3h0c0,.28,0,.57,0,.88,0,.75.54.59.97.6.41,0,.88.09.88-.57,0-.79,0-1.52,0-2.23"/>
    <path class="d" d="M93.79,55.72c0-.48,0-.95,0-1.44v-.3h0c0-.28,0-.57,0-.88,0-.75-.54-.59-.97-.6-.41,0-.88-.09-.88.57,0,.79,0,1.52,0,2.23,0,.48,0,.95,0,1.44v.3h0c0,.28,0,.57,0,.88,0,.75.54.59.97.6.41,0,.88.09.88-.57,0-.79,0-1.52,0-2.23"/>
    <path class="d" d="M89.61,55.72c0-.48,0-.95,0-1.44v-.3h0c0-.28,0-.57,0-.88,0-.75-.54-.59-.97-.6-.41,0-.88-.09-.88.57,0,.79,0,1.52,0,2.23,0,.48,0,.95,0,1.44,0,.1,0,.2,0,.3h0c0,.28,0,.57,0,.88,0,.75.54.59.97.6.41,0,.88.09.88-.57,0-.79,0-1.52,0-2.23"/>
    <path class="d" d="M85.44,55.72c0-.48,0-.95,0-1.44v-.3h0c0-.28,0-.57,0-.88,0-.75-.54-.59-.97-.6-.41,0-.88-.09-.88.57,0,.79,0,1.52,0,2.23,0,.48,0,.95,0,1.44,0,.1,0,.2,0,.3h0c0,.28,0,.57,0,.88,0,.75.54.59.97.6.41,0,.88.09.88-.57,0-.79,0-1.52,0-2.23"/>
    <path class="d" d="M81.26,55.72c0-.48,0-.95,0-1.44v-.3h0c0-.28,0-.57,0-.88,0-.75-.54-.59-.97-.6-.41,0-.88-.09-.88.57,0,.79,0,1.52,0,2.23,0,.48,0,.95,0,1.44,0,.1,0,.2,0,.3h0c0,.28,0,.57,0,.88,0,.75.54.59.97.6.41,0,.88.09.88-.57,0-.79,0-1.52,0-2.23"/>
    <path class="d" d="M43.34,55.72c0-.48,0-.95,0-1.44v-.3h0c0-.28,0-.57,0-.88,0-.75-.54-.59-.97-.6-.41,0-.88-.09-.88.57,0,.79,0,1.52,0,2.23,0,.48,0,.95,0,1.44,0,.1,0,.2,0,.3h0c0,.28,0,.57,0,.88,0,.75.54.59.97.6.41,0,.88.09.88-.57,0-.79,0-1.52,0-2.23"/>
    <path class="d" d="M39.16,55.72c0-.48,0-.95,0-1.44v-.3h0c0-.28,0-.57,0-.88,0-.75-.54-.59-.97-.6-.41,0-.88-.09-.88.57,0,.79,0,1.52,0,2.23,0,.48,0,.95,0,1.44,0,.1,0,.2,0,.3h0c0,.28,0,.57,0,.88,0,.75.54.59.97.6.41,0,.88.09.88-.57,0-.79,0-1.52,0-2.23"/>
    <path class="d" d="M34.99,55.72c0-.48,0-.95,0-1.44v-.3h0c0-.28,0-.57,0-.88,0-.75-.54-.59-.97-.6-.41,0-.88-.09-.88.57,0,.79,0,1.52,0,2.23,0,.48,0,.95,0,1.44v.3h0c0,.28,0,.57,0,.88,0,.75.54.59.97.6.41,0,.88.09.88-.57,0-.79,0-1.52,0-2.23"/>
    <path class="d" d="M30.81,55.72c0-.48,0-.95,0-1.44v-.3h0c0-.28,0-.57,0-.88,0-.75-.54-.59-.97-.6-.41,0-.88-.09-.88.57,0,.79,0,1.52,0,2.23,0,.48,0,.95,0,1.44,0,.1,0,.2,0,.3h0c0,.28,0,.57,0,.88,0,.75.54.59.97.6.41,0,.88.09.88-.57,0-.79,0-1.52,0-2.23"/>
    <path class="d" d="M26.64,55.72c0-.48,0-.95,0-1.44v-.3h0c0-.28,0-.57,0-.88,0-.75-.54-.59-.97-.6-.41,0-.88-.09-.88.57,0,.79,0,1.52,0,2.23,0,.48,0,.95,0,1.44,0,.1,0,.2,0,.3h0c0,.28,0,.57,0,.88,0,.75.54.59.97.6.41,0,.88.09.88-.57,0-.79,0-1.52,0-2.23"/>
    <path class="d" d="M35.77,89.06c-6.41-5.97-10.47-13.92-11.54-22.54-.12-1-1-1.73-2.01-1.66.74,9.77,5.11,18.84,12.3,25.54,6.4,5.96,14.51,9.54,23.14,10.29v-1.84c-8.16-.74-15.84-4.15-21.89-9.79"/>
    <path class="d" d="M97.9,66.49c-1.07,8.63-5.12,16.58-11.53,22.56-5.93,5.53-13.41,8.91-21.39,9.75v1.85c8.44-.84,16.37-4.41,22.64-10.26,7.2-6.71,11.56-15.79,12.29-25.56-1.01-.07-1.88.66-2.01,1.66"/>
    <path class="c" d="M61.59,73.63c.77,2.78.78,5.62.76,8.47-.03,4.74,0,12.57,0,17.3,0,.21,0,.42,0,.63-.02.29.1.68-.19.81-.49.22-1.06.11-1.57-.02,0-.46-.02-.91-.02-1.37,0-4.44-.03-11.98.02-16.42.02-2.02-.66-3.65-2.09-5.05-2.34-2.28-4.65-4.6-6.95-6.92-3.16-3.21-4.88-7.06-5.09-11.57-.01-.25-.07-.49-.11-.74.1-1,.16-2,.01-3,.1-.25.1-.5.01-.76.1-.59.11-1.17,0-1.76.07-.17.07-.34,0-.51.2-.69-.08-1.42.17-2.1,1.12.06,1.59.52,1.73,1.64.11.95.18,1.92.35,2.86.45,2.42,1.65,4.45,3.36,6.19,1.64,1.67,3.28,3.34,4.96,4.98,2.01,1.97,3.52,4.24,4.44,6.9.05.15.16.29.24.44M60.23,77.17c.16-.57.06-.89,0-1.22-.63-3.17-2.12-5.89-4.39-8.18-1.35-1.37-2.71-2.74-4.08-4.09-1.11-1.09-2.06-2.31-2.9-3.62-.14-.22-.17-.58-.57-.56,0,.3-.03.59,0,.88.45,3.61,1.9,6.74,4.47,9.34,1.95,1.96,3.91,3.91,5.87,5.86.5.5.99.99,1.6,1.59"/>
    <path class="d" d="M64.91,52.05c-.02.69-.4,1.18-.93,1.19-.59,0-.96-.56-.94-1.42.02-.78.24-1.07.81-1.07.66,0,1.07.51,1.05,1.31"/>
    <path class="d" d="M61.09,62.61c.48.02,1,.76.96,1.35-.05.71-.43,1.14-.98,1.13-.59-.01-1.03-.62-1.01-1.39.01-.59.51-1.11,1.03-1.09"/>
    <path class="d" d="M61.06,68.37c-.56-.02-1.01-.61-1-1.29.02-.6.51-1.19,1-1.19.48,0,1.03.75.99,1.35-.05.71-.43,1.16-.99,1.14"/>
    <path class="d" d="M61.05,42.94c.56.03,1.04.64,1.01,1.28-.03.55-.58,1.2-1.01,1.18-.53-.02-1.02-.68-.98-1.31.04-.65.49-1.18.98-1.15"/>
    <path class="d" d="M64.91,55.23c.02.75-.39,1.3-.95,1.28-.52-.01-.9-.51-.91-1.2-.02-.75.39-1.3.95-1.28.53.01.9.5.91,1.2"/>
    <path class="d" d="M61.05,46.21c.56.03,1.04.65,1,1.28-.03.55-.58,1.2-1.01,1.18-.53-.02-1.02-.67-.98-1.31.04-.66.49-1.18.98-1.15"/>
    <path class="d" d="M61,55.25c-.48,0-.93-.58-.93-1.23,0-.6.46-1.2.96-1.23.43-.03,1.01.62,1.03,1.17.03.57-.55,1.28-1.06,1.29"/>
    <path class="d" d="M63.05,48.7c0-.71.38-1.21.91-1.22.54-.01.96.51.94,1.18-.02.75-.55,1.34-1.15,1.29-.45-.04-.71-.5-.7-1.26"/>
    <path class="d" d="M64.91,61.84c0,.71-.39,1.2-.92,1.22-.54.01-.95-.52-.94-1.19.02-.75.47-1.34.99-1.3.52.04.88.56.87,1.27"/>
    <path class="d" d="M62.05,57.1c.02.7-.5,1.41-1.03,1.43-.48.02-.92-.53-.95-1.18-.03-.64.48-1.29,1-1.29.4,0,.97.61.98,1.04"/>
    <path class="d" d="M63.05,45.39c.02-.7.41-1.19.94-1.19.57,0,.96.56.93,1.33-.03.65-.4,1.14-.86,1.13-.59,0-1.02-.55-1-1.27"/>
    <path class="d" d="M54.28,56.26c0-.68.51-1.24,1.06-1.2.42.04.81.69.8,1.35-.01.6-.4,1.08-.88,1.11-.57.03-.98-.51-.97-1.27"/>
    <path class="d" d="M63.05,58.56c0-.71.38-1.25.87-1.23.53.02.99.63.99,1.32,0,.65-.44,1.17-.96,1.14-.52-.03-.89-.54-.89-1.23"/>
    <path class="d" d="M66.04,52.93c.04-.66.49-1.16,1-1.1.51.05.92.75.85,1.42-.06.6-.48,1.02-.98,1-.62-.03-.93-.49-.87-1.32"/>
    <path class="d" d="M56.14,49.76c-.01.7-.38,1.19-.91,1.21-.56.02-.97-.53-.95-1.28.02-.67.43-1.16.97-1.14.54.03.91.53.9,1.21"/>
    <path class="d" d="M64.91,65.15c-.02.7-.41,1.18-.94,1.18-.57,0-.96-.55-.93-1.31.02-.66.47-1.15.99-1.11.54.04.9.55.87,1.24"/>
    <path class="d" d="M57.15,52.05c.02.69.4,1.18.93,1.19.59,0,.96-.56.94-1.42-.02-.78-.24-1.07-.81-1.07-.66,0-1.07.51-1.05,1.31"/>
    <path class="d" d="M57.15,55.23c-.02.75.39,1.3.95,1.28.52-.01.9-.51.91-1.2.02-.75-.39-1.3-.95-1.28-.53.01-.9.5-.91,1.2"/>
    <path class="d" d="M59.01,48.7c-.01-.71-.38-1.21-.91-1.22-.54-.01-.96.51-.94,1.18.02.75.55,1.34,1.15,1.29.45-.04.71-.5.7-1.26"/>
    <path class="d" d="M57.15,61.84c0,.71.38,1.2.92,1.22.54.01.95-.52.94-1.19-.02-.75-.47-1.34-.99-1.3-.52.04-.88.56-.87,1.27"/>
    <path class="d" d="M59.01,45.39c-.02-.7-.41-1.19-.94-1.19-.57,0-.96.56-.93,1.33.03.65.4,1.14.86,1.13.59,0,1.02-.55,1-1.27"/>
    <path class="d" d="M59.01,58.56c0-.71-.38-1.25-.87-1.23-.53.02-.99.63-.99,1.32,0,.65.44,1.17.96,1.14.52-.03.89-.54.89-1.23"/>
    <path class="d" d="M57.15,65.15c.02.7.41,1.18.94,1.18.57,0,.96-.55.93-1.31-.02-.66-.47-1.15-.99-1.11-.54.04-.9.55-.87,1.24"/>
    <path class="d" d="M56.14,59.51c.02.7-.34,1.23-.86,1.28-.53.05-.99-.46-1-1.12-.01-.65.4-1.26.88-1.3.52-.05.97.47.98,1.14"/>
    <path class="d" d="M66.04,49.83c0-.73.33-1.29.79-1.32.45-.03,1.07.71,1.06,1.26-.01.63-.46,1.2-.94,1.2-.58,0-.91-.41-.91-1.15"/>
    <path class="d" d="M56.14,53.11c-.03.69-.46,1.18-.99,1.14-.53-.04-.92-.6-.87-1.26.05-.68.51-1.21,1-1.16.54.06.88.58.85,1.28"/>
    <path class="d" d="M51.34,54.07c0-.63.47-1.15.98-1.11.39.03.75.64.74,1.26-.01.56-.37,1-.82,1.03-.53.03-.91-.47-.9-1.17"/>
    <path class="d" d="M53.07,57.09c.01.65-.31,1.14-.79,1.19-.49.05-.92-.43-.93-1.04-.01-.61.37-1.17.81-1.21.48-.04.9.44.91,1.06"/>
    <path class="d" d="M53.07,51.15c-.03.64-.43,1.09-.92,1.06s-.85-.56-.8-1.17c.05-.63.48-1.12.93-1.07.5.05.82.53.79,1.19"/>
    <path class="d" d="M70.81,54.07c0-.63-.47-1.15-.99-1.11-.39.03-.75.64-.74,1.26.01.56.37,1,.82,1.03.53.03.91-.47.91-1.17"/>
    <path class="d" d="M69.09,57.09c-.02.65.31,1.14.79,1.19.49.05.92-.43.93-1.04.01-.61-.37-1.17-.81-1.21-.48-.04-.9.44-.91,1.06"/>
    <path class="d" d="M69.08,51.15c.03.64.43,1.09.92,1.06.49-.04.85-.56.8-1.17-.05-.63-.48-1.12-.93-1.07-.5.05-.82.53-.79,1.19"/>
    <path class="d" d="M61.91,60.56c0,.69-.36,1.2-.88,1.24-.51.04-.99-.59-.97-1.28.02-.6.49-1.17.98-1.18.49-.01.87.52.87,1.23"/>
    <path class="d" d="M66.96,55.1c.42.01.95.73.93,1.24-.02.64-.48,1.2-.96,1.18-.56-.03-.93-.6-.89-1.35.03-.6.45-1.08.91-1.06"/>
    <path class="d" d="M61.91,50.78c-.01.63-.38,1.16-.81,1.18-.45.01-1.06-.74-1.04-1.29.02-.58.53-1.17,1.01-1.16.48.01.85.58.84,1.27"/>
    <path class="d" d="M66.04,59.65c0-.78.22-1.09.79-1.12.59-.03,1.06.44,1.06,1.04,0,.63-.44,1.22-.93,1.22-.58,0-.92-.41-.92-1.15"/>
  </g>
  <rect class="b" x="-3.84" y="7.08" width="131.04" height="103.2"/>
</svg>